<mxfile host="app.diagrams.net" modified="2023-10-24T12:02:47.742Z" agent="Mozilla/5.0 (Windows NT 10.0; Win64; x64) AppleWebKit/537.36 (KHTML, like Gecko) Chrome/118.0.0.0 Safari/537.36" version="22.0.6" etag="_HsaM5URRJBaluV-iOwG" type="github">
  <diagram name="PÃ¡gina-1" id="w7Kvs13lsxpiEk4H9m1z">
    <mxGraphModel>
      <root>
        <mxCell id="0" />
        <mxCell id="1" parent="0" />
      </root>
    </mxGraphModel>
  </diagram>
</mxfile>
